<?xml version="1.0" encoding="UTF-8" standalone="no"?>
<svg
   viewBox="0 0 24 24"
   fill="#ffffff"
   width="24"
   height="24"
   version="1.1"
   id="svg2"
   sodipodi:docname="bx-wind.svg"
   xmlns:inkscape="http://www.inkscape.org/namespaces/inkscape"
   xmlns:sodipodi="http://sodipodi.sourceforge.net/DTD/sodipodi-0.dtd"
   xmlns="http://www.w3.org/2000/svg"
   xmlns:svg="http://www.w3.org/2000/svg">
  <defs
     id="defs2" />
  <sodipodi:namedview
     id="namedview2"
     pagecolor="#505050"
     bordercolor="#ffffff"
     borderopacity="1"
     inkscape:showpageshadow="0"
     inkscape:pageopacity="0"
     inkscape:pagecheckerboard="1"
     inkscape:deskcolor="#505050" />
  <path
     d="M 5.5,11 C 3.57,11 2,12.57 2,14.5 c 0,2.034 1.525,3.25 3,3.25 v -2 C 4.585,15.75 4,15.362 4,14.5 4,13.673 4.673,13 5.5,13 6.327,13 7,13.673 7,14.5 V 22 H 9 V 14.5 C 9,12.57 7.43,11 5.5,11 Z M 15,8.5 V 16 h 2 V 8.5 C 17,7.673 17.673,7 18.5,7 19.327,7 20,7.673 20,8.5 20,9.362 19.415,9.75 19,9.75 v 2 c 1.475,0 3,-1.216 3,-3.25 C 22,6.57 20.43,5 18.5,5 16.57,5 15,6.57 15,8.5 Z"
     id="path1"
     sodipodi:nodetypes="ssccsssccsssccsssccsss" />
  <path
     d="m 5,6 c 0,2.206 1.794,4 4,4 V 8 C 7.897,8 7,7.103 7,6 7,4.897 7.897,4 9,4 c 1.103,0 2,0.897 2,2 v 16 h 2 V 6 C 13,3.794 11.206,2 9,2 6.794,2 5,3.794 5,6 Z m 10,16 v -6.002305 h 2 V 22 Z"
     id="path2"
     sodipodi:nodetypes="sccsssccsssccccc" />
</svg>
